<svg width="22" height="20" viewBox="0 0 22 20" fill="none" xmlns="http://www.w3.org/2000/svg">
<path d="M21.8332 19.75H0.166504V17.5833H1.24984V1.33333C1.24984 1.04602 1.36397 0.770465 1.56714 0.567301C1.7703 0.364137 2.04585 0.25 2.33317 0.25H17.4998C17.7872 0.25 18.0627 0.364137 18.2659 0.567301C18.469 0.770465 18.5832 1.04602 18.5832 1.33333V6.75H20.7498V17.5833H21.8332V19.75ZM16.4165 17.5833H18.5832V8.91667H12.0832V17.5833H14.2498V11.0833H16.4165V17.5833ZM16.4165 6.75V2.41667H3.4165V17.5833H9.9165V6.75H16.4165ZM5.58317 8.91667H7.74984V11.0833H5.58317V8.91667ZM5.58317 13.25H7.74984V15.4167H5.58317V13.25ZM5.58317 4.58333H7.74984V6.75H5.58317V4.58333Z" fill="#212529"/>
</svg>
