<svg width="21" height="22" viewBox="0 0 21 22" fill="none" xmlns="http://www.w3.org/2000/svg">
<path d="M18.5834 0.166668H7.75009C6.55518 0.166668 5.58343 1.13842 5.58343 2.33333V8.38484L0.484178 13.4841C0.332718 13.6356 0.229577 13.8286 0.187796 14.0387C0.146014 14.2488 0.167468 14.4666 0.249444 14.6645C0.331419 14.8625 0.470237 15.0316 0.648348 15.1507C0.826459 15.2697 1.03587 15.3333 1.25009 15.3333V20.75C1.25009 21.0373 1.36423 21.3129 1.5674 21.516C1.77056 21.7192 2.04611 21.8333 2.33343 21.8333H19.6668C19.9541 21.8333 20.2296 21.7192 20.4328 21.516C20.636 21.3129 20.7501 21.0373 20.7501 20.75V2.33333C20.7501 1.13842 19.7783 0.166668 18.5834 0.166668ZM9.91676 19.6667H3.41676V13.6152L6.66676 10.3652L9.91676 13.6152V19.6667ZM18.5834 19.6667H12.0834V15.3333C12.2979 15.3338 12.5077 15.2706 12.6861 15.1516C12.8646 15.0326 13.0036 14.8634 13.0857 14.6652C13.1678 14.4671 13.1891 14.249 13.147 14.0387C13.1049 13.8284 13.0013 13.6354 12.8493 13.4841L7.75009 8.38484V2.33333H18.5834V19.6667Z" fill="#B6B6B6"/>
</svg>
