<svg width="24" height="22" viewBox="0 0 24 22" fill="none" xmlns="http://www.w3.org/2000/svg">
<path d="M23.0321 10.8223L13.2212 1.01647L12.5636 0.358853C12.4137 0.210004 12.2111 0.126465 11.9999 0.126465C11.7887 0.126465 11.5861 0.210004 11.4362 0.358853L0.967683 10.8223C0.814149 10.9753 0.692808 11.1574 0.610823 11.358C0.528839 11.5586 0.487871 11.7736 0.49034 11.9903C0.500496 12.884 1.24444 13.5975 2.13819 13.5975H3.21729V21.8672H20.7825V13.5975H21.8845C22.3187 13.5975 22.7274 13.4274 23.0347 13.1202C23.1859 12.9694 23.3058 12.7901 23.3873 12.5926C23.4688 12.3952 23.5103 12.1836 23.5095 11.97C23.5095 11.5383 23.3394 11.1295 23.0321 10.8223ZM13.4218 20.0391H10.578V14.8594H13.4218V20.0391ZM18.9544 11.7694V20.0391H15.0468V14.2501C15.0468 13.6889 14.5923 13.2344 14.0312 13.2344H9.96866C9.40752 13.2344 8.95303 13.6889 8.95303 14.2501V20.0391H5.04542V11.7694H2.60792L12.0024 2.38248L12.589 2.96901L21.3944 11.7694H18.9544Z" fill="#B6B6B6"/>
</svg>
